<svg width="153" height="23" viewBox="0 0 153 23" fill="none" xmlns="http://www.w3.org/2000/svg">
<path d="M4.00586 22V13.6064H13.293V10.2959H4.00586L4.00586 4.30469H14.0547V0.994141H0.255859L0.255859 22H4.00586ZM21.8477 19.3047C20.0898 19.3047 19.1377 18.4258 19.1377 17.1953C19.1523 15.8037 20.0459 15.1006 21.8477 15.1006H25.7441V15.8477C25.7441 17.9717 24.25 19.3047 21.8477 19.3047ZM21.0859 22.293C22.1846 22.293 23.1514 22.0732 23.9863 21.6191C24.8213 21.165 25.4072 20.6523 25.7441 20.0518H25.8906L26.1836 22H29.1865V11.6436C29.1865 9.82715 28.6152 8.3916 27.458 7.35156C26.3008 6.31152 24.6748 5.79883 22.5947 5.79883C20.9395 5.79883 19.5479 6.23828 18.4199 7.13184C17.292 8.02539 16.5596 9.18262 16.1934 10.6035H19.7383C20.0752 9.60742 21.0713 8.80176 22.5947 8.80176C24.543 8.80176 25.7441 9.8418 25.7441 11.6436V12.4053H21.6865C19.8115 12.4053 18.3467 12.874 17.292 13.8115C16.2227 14.7637 15.6953 15.9355 15.6953 17.3564C15.6953 18.792 16.1934 19.9785 17.1748 20.9014C18.1562 21.8242 19.46 22.293 21.0859 22.293ZM37.6826 17.8398C36.9209 16.9756 36.54 15.7012 36.54 14.0459C36.54 12.3906 36.9209 11.1162 37.6826 10.252C38.4443 9.3877 39.4111 8.94824 40.5977 8.94824C41.7695 8.94824 42.7363 9.3877 43.498 10.252C44.2598 11.1162 44.6406 12.3906 44.6406 14.0459C44.6406 15.7012 44.2598 16.9756 43.498 17.8398C42.7363 18.7041 41.7695 19.1436 40.5977 19.1436C39.4111 19.1436 38.4443 18.7041 37.6826 17.8398ZM41.1836 22.293C43.2637 22.293 44.9336 21.5752 46.1934 20.1396C47.4531 18.7041 48.083 16.668 48.083 14.0459C48.083 11.4238 47.4531 9.40234 46.1934 7.95215C44.9336 6.5166 43.2637 5.79883 41.1836 5.79883C40.1729 5.79883 39.25 6.01855 38.4443 6.44336C37.6387 6.86816 37.0527 7.35156 36.6865 7.89355H36.54V0.994141H33.083V22H35.9395L36.3936 20.0518H36.54C37.4922 21.3555 39.1914 22.293 41.1836 22.293ZM54.7041 22V6.10645H51.2471V22H54.7041ZM52.9609 4.30469C54.25 4.30469 55.1436 3.39648 55.1436 2.19531C55.1436 0.994141 54.25 0.100586 52.9609 0.100586C52.3311 0.100586 51.8184 0.305664 51.4082 0.701172C50.998 1.09668 50.793 1.59473 50.793 2.19531C50.793 2.7959 50.998 3.30859 51.4229 3.7041C51.833 4.09961 52.3457 4.30469 52.9609 4.30469ZM70.8174 20.0957C72.1797 18.6455 72.8535 16.624 72.8535 14.0459C72.8535 11.4678 72.1797 9.44629 70.8174 7.98145C69.4551 6.53125 67.624 5.79883 65.3535 5.79883C63.0684 5.79883 61.252 6.53125 59.8896 7.98145C58.5273 9.44629 57.8535 11.4678 57.8535 14.0459C57.8535 16.624 58.5273 18.6455 59.8896 20.0957C61.252 21.5605 63.0684 22.293 65.3535 22.293C67.624 22.293 69.4551 21.5605 70.8174 20.0957ZM62.4385 17.8398C61.6768 16.9756 61.2959 15.7012 61.2959 14.0459C61.2959 12.3906 61.6768 11.1162 62.4385 10.252C63.2002 9.3877 64.167 8.94824 65.3535 8.94824C66.54 8.94824 67.5068 9.3877 68.2686 10.252C69.0156 11.1162 69.3965 12.3906 69.3965 14.0459C69.3965 15.7012 69.0156 16.9756 68.2686 17.8398C67.5068 18.7041 66.54 19.1436 65.3535 19.1436C64.167 19.1436 63.2002 18.7041 62.4385 17.8398Z" fill="#EB9532"/>
<path d="M84.25 22L88 6.25293H88.1611L91.9111 22H96.4082L101.799 0.994141H97.9023L94.2988 16.9023H94.1523L90.2559 0.994141H85.9053L82.0088 16.9023H81.8477L78.2588 0.994141H74.3477L79.7529 22H84.25ZM115.642 20.0957C117.004 18.6455 117.678 16.624 117.678 14.0459C117.678 11.4678 117.004 9.44629 115.642 7.98145C114.279 6.53125 112.448 5.79883 110.178 5.79883C107.893 5.79883 106.076 6.53125 104.714 7.98145C103.352 9.44629 102.678 11.4678 102.678 14.0459C102.678 16.624 103.352 18.6455 104.714 20.0957C106.076 21.5605 107.893 22.293 110.178 22.293C112.448 22.293 114.279 21.5605 115.642 20.0957ZM107.263 17.8398C106.501 16.9756 106.12 15.7012 106.12 14.0459C106.12 12.3906 106.501 11.1162 107.263 10.252C108.024 9.3877 108.991 8.94824 110.178 8.94824C111.364 8.94824 112.331 9.3877 113.093 10.252C113.84 11.1162 114.221 12.3906 114.221 14.0459C114.221 15.7012 113.84 16.9756 113.093 17.8398C112.331 18.7041 111.364 19.1436 110.178 19.1436C108.991 19.1436 108.024 18.7041 107.263 17.8398ZM133.044 20.0957C134.406 18.6455 135.08 16.624 135.08 14.0459C135.08 11.4678 134.406 9.44629 133.044 7.98145C131.682 6.53125 129.851 5.79883 127.58 5.79883C125.295 5.79883 123.479 6.53125 122.116 7.98145C120.754 9.44629 120.08 11.4678 120.08 14.0459C120.08 16.624 120.754 18.6455 122.116 20.0957C123.479 21.5605 125.295 22.293 127.58 22.293C129.851 22.293 131.682 21.5605 133.044 20.0957ZM124.665 17.8398C123.903 16.9756 123.522 15.7012 123.522 14.0459C123.522 12.3906 123.903 11.1162 124.665 10.252C125.427 9.3877 126.394 8.94824 127.58 8.94824C128.767 8.94824 129.733 9.3877 130.495 10.252C131.242 11.1162 131.623 12.3906 131.623 14.0459C131.623 15.7012 131.242 16.9756 130.495 17.8398C129.733 18.7041 128.767 19.1436 127.58 19.1436C126.394 19.1436 125.427 18.7041 124.665 17.8398ZM142.067 17.8398C141.306 16.9756 140.925 15.7012 140.925 14.0459C140.925 12.3906 141.306 11.1162 142.067 10.252C142.829 9.3877 143.796 8.94824 144.982 8.94824C146.169 8.94824 147.136 9.3877 147.897 10.252C148.645 11.1162 149.025 12.3906 149.025 14.0459C149.025 15.7012 148.645 16.9756 147.897 17.8398C147.136 18.7041 146.169 19.1436 144.982 19.1436C143.796 19.1436 142.829 18.7041 142.067 17.8398ZM144.382 22.293C146.374 22.293 148.073 21.3848 149.025 20.0518H149.187L149.626 22H152.482V0.994141H149.025V7.89355H148.879C148.513 7.35156 147.927 6.86816 147.121 6.44336C146.315 6.01855 145.393 5.79883 144.382 5.79883C142.302 5.79883 140.632 6.5166 139.372 7.95215C138.112 9.40234 137.482 11.4238 137.482 14.0459C137.482 16.668 138.112 18.7041 139.372 20.1396C140.632 21.5752 142.302 22.293 144.382 22.293Z" fill="black"/>
</svg>
