<svg width="85" height="85" viewBox="0 0 85 85" fill="none" xmlns="http://www.w3.org/2000/svg">
<path d="M32.9653 48.0431V37.6953H39.6175V39.0997H34.5175V42.3518H39.2479V43.7562H34.5175V48.0431H32.9653Z" fill="black"/>
<path d="M43.0221 48.0431L40.3613 37.6953H41.9873L43.983 46.0475H44.0569L46.0526 37.6953H47.9743L49.97 46.0475H50.0439L52.0395 37.6953H53.6656L51.0047 48.0431H49.0091L47.043 39.7649H46.9839L45.0178 48.0431H43.0221Z" fill="black"/>
<path fill-rule="evenodd" clip-rule="evenodd" d="M0.73913 42.5C0.73913 65.5639 19.4361 84.2609 42.5 84.2609C65.5639 84.2609 84.2609 65.5639 84.2609 42.5C84.2609 19.4361 65.5639 0.73913 42.5 0.73913C19.4361 0.73913 0.73913 19.4361 0.73913 42.5ZM42.5 0C19.0279 0 0 19.0279 0 42.5C0 65.9721 19.0279 85 42.5 85C65.9721 85 85 65.9721 85 42.5C85 19.0279 65.9721 0 42.5 0Z" fill="black"/>
</svg>
